# xmcd CD database file
#
# Track frame offsets:
#	150
#	42719
#	92790
#	122127
#	147534
#	177781
#	213509
#	250646
#	276731
#	323720
#
# Disc length: 4681 seconds
#
# Revision: 0
# Processed by: cddbd v1.5.2PL0 Copyright (c) Steve Scherf et al.
# Submitted via: CDex 1.70beta2
#
DISCID=9e12470a
DTITLE=Various Artist - Yoga and Meditation
DYEAR=2012
DGENRE=New Age
TTITLE0=Prem Gulshan - Airborne
TTITLE1=Beyond Bombay - Gentle Breeze
TTITLE2=Hanndi - Solitude
TTITLE3=Tabla Temple - Eastern Persuasions
TTITLE4=Prem Gulshan - Another Place
TTITLE5=Akash Asher - Whispering Spirits
TTITLE6=Exotikka - Enlightenment
TTITLE7=Saffron Sounds - Mind Phazes
TTITLE8=Saffron Sounds - Ascending Spirits
TTITLE9=Akash Asher - Inner Earth
EXTD=YEAR: 2012
EXTT0=
EXTT1=
EXTT2=
EXTT3=
EXTT4=
EXTT5=
EXTT6=
EXTT7=
EXTT8=
EXTT9=
PLAYORDER=
